<svg width="100" height="130" viewBox="0 0 100 130" fill="none" xmlns="http://www.w3.org/2000/svg">
<g clip-path="url(#clip0)">
<path fill-rule="evenodd" clip-rule="evenodd" d="M0 130H100C99.1281 101.09 77.076 77.9419 50 77.9419C22.924 77.9419 0.871914 101.09 0 130Z" fill="#393939"/>
<path fill-rule="evenodd" clip-rule="evenodd" d="M53.0899 130H46.5137L33.5312 83.5876C33.1745 82.3124 34.1331 81.0488 35.4572 81.0488L64.1464 81.0488C65.4705 81.0488 66.4292 82.3124 66.0725 83.5876L53.0899 130Z" fill="white"/>
<ellipse rx="4.85617" ry="7.39276" transform="matrix(0.992705 -0.120572 0.128603 0.991696 21.7358 49.9219)" fill="#FDA639"/>
<ellipse rx="4.85617" ry="7.39276" transform="matrix(-0.992705 -0.120572 -0.128603 0.991696 78.3032 49.9219)" fill="#FDA639"/>
<path fill-rule="evenodd" clip-rule="evenodd" d="M49.8011 56.4468C40.5054 56.4468 32.9697 63.9825 32.9697 73.2782V81.2618V81.2618C32.9697 81.4187 33.0274 81.5699 33.1296 81.689L40.1316 89.8515C40.3215 90.0729 40.5988 90.2004 40.8906 90.2004H58.731C59.0114 90.2004 59.2789 90.0827 59.4683 89.876L66.3688 82.3452C66.5267 82.173 66.6203 81.9508 66.6265 81.7172C66.6305 81.5659 66.6326 81.4141 66.6326 81.2618V73.2782C66.6326 63.9825 59.0969 56.4468 49.8011 56.4468Z" fill="#F88C05"/>
<path d="M37.5966 24.0557C57.1738 21.0811 70.308 31.8518 73.2482 35.0878C82.5606 17.3364 66.4324 6.73631 54.4566 4.15898C45.4338 2.21715 38.2731 6.50211 34.4296 11.2246C31.3548 15.0027 21.678 18.1661 12.2235 15.669C12.524 19.7039 18.0193 27.0303 37.5966 24.0557Z" fill="#E8BC37"/>
<path d="M22.479 35.9899C22.479 25.7552 31.1158 17.4583 41.7699 17.4583H57.5534C68.2074 17.4583 76.8443 25.7552 76.8443 35.9899V54.8585H76.8347C76.4495 71.8682 64.4312 85.52 49.6616 85.52C34.8921 85.52 22.8738 71.8682 22.4885 54.8585H22.479V35.9899Z" fill="#FDA639"/>
<path d="M38.412 31.7745C57.9536 23.7526 72.8162 34.1339 76.2566 37.4764C83.3094 13.4891 65.4193 3.98358 52.8618 3.46165C43.4006 3.06841 36.6918 9.95002 33.4234 16.635C30.8087 21.983 21.382 28.0388 11.4048 27.0557C12.2649 31.9712 18.8705 39.7965 38.412 31.7745Z" fill="#F2C94C"/>
<path fill-rule="evenodd" clip-rule="evenodd" d="M41.9922 67.53C42.1511 71.0762 45.7391 73.9113 50.1421 73.9113C54.5451 73.9113 58.1332 71.0762 58.2921 67.53H41.9922Z" fill="#F54E4E"/>
<ellipse cx="38.5872" cy="48.4864" rx="3.02029" ry="3.00272" fill="#717171"/>
<ellipse cx="61.743" cy="48.4864" rx="3.02029" ry="3.00272" fill="#717171"/>
<rect x="44.6279" y="50.4883" width="10.0676" height="12.0109" rx="5.03382" fill="url(#paint0_linear)"/>
<rect x="22.479" y="31.4709" width="5.03382" height="17.0154" rx="2.51691" fill="#F2C94C"/>
<rect x="72.8174" y="31.4709" width="4.02706" height="17.0154" rx="2.01353" fill="#F2C94C"/>
<line x1="2.5" y1="-2.5" x2="7.54705" y2="-2.5" transform="matrix(0.974515 -0.224323 0.238669 0.971101 32.2754 43.2512)" stroke="#F2C94C" stroke-width="5" stroke-linecap="round"/>
<line x1="2.5" y1="-2.5" x2="7.54705" y2="-2.5" transform="matrix(-0.974515 -0.224323 -0.238669 0.971101 67.0537 43.2512)" stroke="#F2C94C" stroke-width="5" stroke-linecap="round"/>
<path d="M51.713 104.648C50.9128 105.625 49.4176 105.625 48.6173 104.648L39.324 93.2907C38.2555 91.9848 39.1845 90.0241 40.8718 90.0241L59.4585 90.0241C61.1458 90.0241 62.0749 91.9848 61.0063 93.2907L51.713 104.648Z" fill="#3F6EB6"/>
<mask id="mask0" mask-type="alpha" maskUnits="userSpaceOnUse" x="33" y="81" width="34" height="50">
<path fill-rule="evenodd" clip-rule="evenodd" d="M53.0899 130H46.5137L33.5312 83.5876C33.1745 82.3124 34.1331 81.0488 35.4572 81.0488L64.1464 81.0488C65.4705 81.0488 66.4292 82.3124 66.0725 83.5876L53.0899 130Z" fill="white"/>
</mask>
<g mask="url(#mask0)">
<path d="M49.8542 90.3687L60.223 130.168H39.4854L49.8542 90.3687Z" fill="#3F6EB6"/>
</g>
</g>
<defs>
<linearGradient id="paint0_linear" x1="49.6618" y1="50.4883" x2="49.6618" y2="62.4992" gradientUnits="userSpaceOnUse">
<stop stop-color="#FDA639" stop-opacity="0"/>
<stop offset="1" stop-color="#F28803"/>
</linearGradient>
<clipPath id="clip0">
<rect width="100" height="130" fill="white"/>
</clipPath>
</defs>
</svg>
