<svg width="70" height="90" viewBox="0 0 70 90" fill="none" xmlns="http://www.w3.org/2000/svg">
<g clip-path="url(#clip0)">
<path fill-rule="evenodd" clip-rule="evenodd" d="M0.000488281 90.3043H69.1614C68.5586 70.5857 53.3071 54.7969 34.5809 54.7969C15.8548 54.7969 0.603256 70.5857 0.000488281 90.3043Z" fill="#393939"/>
<path fill-rule="evenodd" clip-rule="evenodd" d="M37.0638 90.9841H32.5157L23.5368 58.8847C23.2901 58.0028 23.9531 57.1289 24.8689 57.1289L44.7106 57.1289C45.6264 57.1289 46.2894 58.0028 46.0427 58.8847L37.0638 90.9841Z" fill="white"/>
<path fill-rule="evenodd" clip-rule="evenodd" d="M34.7892 40.1138C28.8305 40.1138 24 44.9443 24 50.903V57.2018C24 57.3581 24.053 57.5098 24.1503 57.6322L28.5751 63.1975C28.7063 63.3625 28.9056 63.4587 29.1165 63.4587H40.4755C40.6785 63.4587 40.8712 63.3695 41.0026 63.2148L45.4139 58.0207C45.5201 57.8957 45.5784 57.737 45.5784 57.573V50.903C45.5784 44.9443 40.7479 40.1138 34.7892 40.1138Z" fill="#F88C05"/>
<ellipse rx="3.14389" ry="5.10758" transform="matrix(-0.99167 -0.128805 -0.120382 0.992728 31.2362 32.6015)" fill="#FDA639"/>
<circle cx="21" cy="32" r="2" fill="#717171"/>
<rect x="28" y="20" width="3" height="12" rx="1.5" fill="#F2C94C"/>
<line x1="1.72902" y1="-1.72902" x2="4.79211" y2="-1.72902" transform="matrix(-0.971012 -0.239029 -0.223983 0.974593 23.9604 27.9878)" stroke="#F2C94C" stroke-width="3.45804" stroke-linecap="round"/>
<mask id="mask0" mask-type="alpha" maskUnits="userSpaceOnUse" x="23" y="57" width="24" height="34">
<path fill-rule="evenodd" clip-rule="evenodd" d="M37.0638 90.9841H32.5157L23.5368 58.8847C23.2901 58.0028 23.9531 57.1289 24.8689 57.1289L44.7106 57.1289C45.6264 57.1289 46.2894 58.0028 46.0427 58.8847L37.0638 90.9841Z" fill="white"/>
</mask>
<g mask="url(#mask0)">
<path d="M34.8259 63.5747L41.9971 91.1002H27.6548L34.8259 63.5747Z" fill="#D33E3E"/>
</g>
<path d="M17 31.6292L20.15 35H49.85L53 31.6292V23.0001C53 13.0589 44.9411 5.00002 34.9999 5.00005C25.0588 5.00009 17 13.0589 17 23V31.6292Z" fill="#C4C4C4"/>
<path d="M17.2512 40.7635C17.8284 46.6341 18.8563 49.6814 23.9497 53.9865C23.9497 53.9865 27.3809 57.9253 30.2892 58.9933C33.4271 60.1457 35.6301 60.1016 38.7819 58.9933C41.7749 57.9408 45.3607 53.9865 45.3607 53.9865C50.4695 47.868 52.117 44.8939 51.9396 40.7635C55.361 38.1969 56.8195 35.8899 55.5426 31.9834C55.012 30.36 52.9052 30.1612 51.8015 31.4645L49.9061 33.7027L49.4039 17.6871C49.2315 12.1888 44.0305 8.25131 38.6917 9.57725V9.57725C36.0007 10.2456 33.1733 10.2526 30.4773 9.60445V9.60445C24.9746 8.28161 19.6434 12.4426 19.6434 18.1021V33.7027L17.305 31.3911C16.1804 30.2794 14.271 30.4996 13.6652 31.9603C12.1255 35.6731 13.2337 37.8784 17.2512 40.7635Z" fill="#FDA639"/>
<path fill-rule="evenodd" clip-rule="evenodd" d="M29.6768 44.2583C29.7796 46.7133 32.1024 48.6762 34.9529 48.6762C37.8033 48.6762 40.1262 46.7133 40.229 44.2583H29.6768Z" fill="#F54E4E"/>
<circle cx="28" cy="32" r="2" fill="#717171"/>
<circle cx="42" cy="32" r="2" fill="#717171"/>
<rect x="32" y="32" width="6" height="9" rx="3" fill="url(#paint0_linear)"/>
<path d="M36.1115 73.4496C35.5581 74.1259 34.524 74.1259 33.9706 73.4496L27.5432 65.5951C26.8042 64.692 27.4468 63.3359 28.6137 63.3359L41.4684 63.3359C42.6354 63.3359 43.2779 64.692 42.5389 65.5951L36.1115 73.4496Z" fill="#D33E3E"/>
<line x1="1.72902" y1="-1.72902" x2="5.2196" y2="-1.72902" transform="matrix(0.974515 -0.224323 0.238669 0.971101 23 29.5586)" stroke="#C4C4C4" stroke-width="3.45804" stroke-linecap="round"/>
<line x1="1.72902" y1="-1.72902" x2="5.2196" y2="-1.72902" transform="matrix(-0.974515 -0.224323 -0.238669 0.971101 46.7715 29.5586)" stroke="#C4C4C4" stroke-width="3.45804" stroke-linecap="round"/>
</g>
<defs>
<linearGradient id="paint0_linear" x1="35" y1="32" x2="35" y2="41" gradientUnits="userSpaceOnUse">
<stop stop-color="#FDA639" stop-opacity="0"/>
<stop offset="1" stop-color="#F28803"/>
</linearGradient>
<clipPath id="clip0">
<rect width="70" height="90" fill="white"/>
</clipPath>
</defs>
</svg>
