<svg width="70" height="90" viewBox="0 0 70 90" fill="none" xmlns="http://www.w3.org/2000/svg">
<g clip-path="url(#clip0)">
<rect x="8.88818" y="3.61572" width="51.2709" height="87.0903" rx="25.6355" fill="#542E17"/>
<path fill-rule="evenodd" clip-rule="evenodd" d="M1.16211 91.014H69.0716C68.4795 70.7279 53.504 54.4849 35.1169 54.4849C16.7297 54.4849 1.75428 70.7279 1.16211 91.014Z" fill="#393939"/>
<path fill-rule="evenodd" clip-rule="evenodd" d="M37.2149 91.0142H32.7489L23.93 58.4368C23.6882 57.5438 24.3607 56.665 25.2858 56.665L44.678 56.665C45.6031 56.665 46.2756 57.5438 46.0339 58.4368L37.2149 91.0142Z" fill="white"/>
<ellipse cx="15.9233" cy="37.9665" rx="3.29942" ry="5.1848" transform="rotate(-7.15331 15.9233 37.9665)" fill="#FDA639"/>
<ellipse rx="3.29942" ry="5.1848" transform="matrix(-0.992217 -0.124525 -0.124525 0.992217 54.3379 37.9665)" fill="#FDA639"/>
<path fill-rule="evenodd" clip-rule="evenodd" d="M34.9818 70.1431C40.0835 70.1431 44.2192 66.0073 44.2192 60.9056L44.2192 52.775C44.2192 52.6356 44.1778 52.4994 44.1001 52.3837L40.3332 46.7692C40.2028 46.5748 39.9841 46.4582 39.75 46.4582L30.2002 46.4582C29.9738 46.4582 29.7612 46.5674 29.6293 46.7514L25.8757 51.9889C25.7902 52.1082 25.7443 52.2513 25.7443 52.398L25.7443 60.9056C25.7443 66.0073 29.88 70.1431 34.9818 70.1431Z" fill="#F88C05"/>
<path d="M16.7173 25.026C16.7173 17.8673 22.5206 12.064 29.6793 12.064H40.2846C47.4433 12.064 53.2466 17.8673 53.2466 25.026V38.2237H53.2402C52.9813 50.1211 44.9059 59.6699 34.9819 59.6699C25.0579 59.6699 16.9825 50.1211 16.7237 38.2237H16.7173V25.026Z" fill="#FDA639"/>
<path fill-rule="evenodd" clip-rule="evenodd" d="M29.6792 47.1797C29.7872 49.6679 32.2238 51.6573 35.2138 51.6573C38.2038 51.6573 40.6403 49.6679 40.7484 47.1797H29.6792Z" fill="#F54E4E"/>
<circle cx="27.3227" cy="33.7461" r="2.12106" fill="#717171"/>
<circle cx="42.8769" cy="33.7461" r="2.12106" fill="#717171"/>
<rect x="32.7676" y="35.2212" width="4.21405" height="8.42809" rx="2.10702" fill="url(#paint0_linear)"/>
<rect x="16.7173" y="22.4663" width="2.46129" height="10.5748" rx="1.23065" transform="rotate(6.00364 16.7173 22.4663)" fill="#542E17"/>
<rect width="2.46129" height="10.5748" rx="1.23065" transform="matrix(-0.994515 0.104592 0.104592 0.994515 53.2803 22.7246)" fill="#542E17"/>
<line x1="23.6013" y1="29.2963" x2="28.8838" y2="28.0398" stroke="#542E17" stroke-width="1.40468" stroke-linecap="round"/>
<line x1="0.702341" y1="-0.702341" x2="6.13217" y2="-0.702341" transform="matrix(-0.972859 -0.231398 -0.231398 0.972859 46.6982 30.1421)" stroke="#542E17" stroke-width="1.40468" stroke-linecap="round"/>
<circle cx="15.3645" cy="43.1023" r="1.56027" fill="white"/>
<circle cx="54.6955" cy="43.1023" r="1.56027" fill="white"/>
<path fill-rule="evenodd" clip-rule="evenodd" d="M53.2804 24.3271H16.4692V22.095C16.4692 11.9299 24.7097 3.68945 34.8748 3.68945C45.0399 3.68945 53.2804 11.9299 53.2804 22.095V24.3271Z" fill="#542E17"/>
</g>
<defs>
<linearGradient id="paint0_linear" x1="34.8746" y1="35.2212" x2="34.8746" y2="43.6493" gradientUnits="userSpaceOnUse">
<stop stop-color="#FDA639" stop-opacity="0"/>
<stop offset="1" stop-color="#F28803"/>
</linearGradient>
<clipPath id="clip0">
<rect width="70" height="90" fill="white"/>
</clipPath>
</defs>
</svg>
