<svg width="70" height="90" viewBox="0 0 70 90" fill="none" xmlns="http://www.w3.org/2000/svg">
<g clip-path="url(#clip0)">
<path fill-rule="evenodd" clip-rule="evenodd" d="M0.000488281 90.3043H69.1614C68.5586 70.5857 53.3071 54.7969 34.5809 54.7969C15.8548 54.7969 0.603256 70.5857 0.000488281 90.3043Z" fill="#393939"/>
<path fill-rule="evenodd" clip-rule="evenodd" d="M37.0638 90.9841H32.5157L23.5368 58.8847C23.2901 58.0028 23.9531 57.1289 24.8689 57.1289L44.7106 57.1289C45.6264 57.1289 46.2894 58.0028 46.0427 58.8847L37.0638 90.9841Z" fill="white"/>
<path fill-rule="evenodd" clip-rule="evenodd" d="M34.7892 40.1138C28.8305 40.1138 24 44.9443 24 50.903V57.2018C24 57.3581 24.053 57.5098 24.1503 57.6322L28.5751 63.1975C28.7063 63.3625 28.9056 63.4587 29.1165 63.4587H40.4755C40.6785 63.4587 40.8712 63.3695 41.0026 63.2148L45.4139 58.0207C45.5201 57.8957 45.5784 57.737 45.5784 57.573V50.903C45.5784 44.9443 40.7479 40.1138 34.7892 40.1138Z" fill="#F88C05"/>
<path d="M16 23.6139C16 16.0951 21.8781 10 29.129 10H39.871C47.1219 10 53 16.0951 53 23.6139V37.4752H52.9935C52.7313 49.971 44.5519 60 34.5 60C24.4481 60 16.2687 49.971 16.0065 37.4752H16V23.6139Z" fill="#FDA639"/>
<path d="M16 23.6139C16 16.0951 21.8781 10 29.129 10H39.871C47.1219 10 53 16.0951 53 23.6139V37.4752H52.9935C52.7313 49.971 44.5519 60 34.5 60C24.4481 60 16.2687 49.971 16.0065 37.4752H16V23.6139Z" fill="url(#paint0_linear)"/>
<path fill-rule="evenodd" clip-rule="evenodd" d="M29.3882 47.7793C29.4979 50.232 31.9795 52.193 35.0248 52.193C38.07 52.193 40.5516 50.232 40.6613 47.7793H29.3882Z" fill="#F54E4E"/>
<ellipse cx="27.0337" cy="34.6084" rx="2.08886" ry="2.07671" fill="#717171"/>
<ellipse cx="43.0478" cy="34.6084" rx="2.08886" ry="2.07671" fill="#717171"/>
<rect x="31" y="36" width="8" height="8" rx="4" fill="url(#paint1_linear)"/>
<line x1="1" y1="-1" x2="5.94862" y2="-1" transform="matrix(0.974515 -0.224323 0.238669 0.971101 22.668 30.9878)" stroke="#C4C4C4" stroke-width="2" stroke-linecap="round"/>
<line x1="1" y1="-1" x2="5.94862" y2="-1" transform="matrix(-0.974515 -0.224323 -0.238669 0.971101 46.7212 30.9878)" stroke="#C4C4C4" stroke-width="2" stroke-linecap="round"/>
<path d="M36.1115 73.4496C35.5581 74.1259 34.524 74.1259 33.9706 73.4496L27.5432 65.5951C26.8042 64.692 27.4468 63.3359 28.6137 63.3359L41.4684 63.3359C42.6354 63.3359 43.2779 64.692 42.5389 65.5951L36.1115 73.4496Z" fill="#439350"/>
<mask id="mask0" mask-type="alpha" maskUnits="userSpaceOnUse" x="23" y="57" width="24" height="34">
<path fill-rule="evenodd" clip-rule="evenodd" d="M37.0638 90.9841H32.5157L23.5368 58.8847C23.2901 58.0028 23.9531 57.1289 24.8689 57.1289L44.7106 57.1289C45.6264 57.1289 46.2894 58.0028 46.0427 58.8847L37.0638 90.9841Z" fill="white"/>
</mask>
<g mask="url(#mask0)">
<path d="M34.8259 63.5747L41.9971 91.1002H27.6548L34.8259 63.5747Z" fill="#439350"/>
</g>
<path fill-rule="evenodd" clip-rule="evenodd" d="M50.9791 32H53.7655C53.9199 30.8156 54 29.6017 54 28.3654C54 15.461 45.2696 5 34.5 5C23.7304 5 15 15.461 15 28.3654C15 29.6017 15.0801 30.8156 15.2345 32H18.0209C18.4573 18.6969 25.6684 8.11538 34.5 8.11538C43.3316 8.11538 50.5427 18.6969 50.9791 32Z" fill="#C4C4C4"/>
<path d="M29.578 12.5766C40.1102 9.9519 44.2863 14.0524 46.1405 15.146C49.9418 7.29779 40.2996 4.18774 33.5316 4.01698C28.4324 3.88832 23.7705 4.43995 20.3828 7.43746C17.2275 10.2293 13.6076 16.0023 15.5433 19C19.8988 16.8588 19.0458 15.2012 29.578 12.5766Z" fill="#D0D0D0"/>
<rect x="21.5" y="31.5" width="11" height="7" rx="3.5" stroke="#4F4F4F"/>
<rect x="37.5" y="31.5" width="11" height="7" rx="3.5" stroke="#4F4F4F"/>
<path fill-rule="evenodd" clip-rule="evenodd" d="M38 35C38 33.8954 37.1046 33 36 33H34C32.8954 33 32 33.8954 32 35H33C33 34.4477 33.4477 34 34 34H36C36.5523 34 37 34.4477 37 35H38Z" fill="#4F4F4F"/>
<path fill-rule="evenodd" clip-rule="evenodd" d="M21.9719 35.0725C22.2139 34.3935 21.8598 33.6468 21.1808 33.4047L15.668 31.4385C14.9891 31.1964 14.2423 31.5504 14 32.2293L14.9419 32.5652C14.9987 32.4065 15.1733 32.3238 15.3321 32.3804L20.8448 34.3466C21.0036 34.4032 21.0865 34.5778 21.03 34.7366L21.9719 35.0725Z" fill="#4F4F4F"/>
<path fill-rule="evenodd" clip-rule="evenodd" d="M48.0365 34.8592C47.7945 34.1802 48.1486 33.4335 48.8277 33.1913L53.7421 31.4385C54.4211 31.1964 55.1679 31.5504 55.4101 32.2294L54.4683 32.5653C54.4115 32.4065 54.2369 32.3238 54.078 32.3804L49.1636 34.1332C49.0048 34.1898 48.9219 34.3644 48.9784 34.5233L48.0365 34.8592Z" fill="#4F4F4F"/>
<ellipse rx="3.35857" ry="5.11289" transform="matrix(0.992705 -0.120572 0.128603 0.991696 14.9916 36.4755)" fill="#FDA639"/>
<ellipse rx="3.35857" ry="5.11289" transform="matrix(-0.992705 -0.120572 -0.128603 0.991696 54.5016 35.6015)" fill="#FDA639"/>
</g>
<defs>
<linearGradient id="paint0_linear" x1="34.5" y1="10" x2="34.5" y2="60" gradientUnits="userSpaceOnUse">
<stop offset="0.515625" stop-color="#FDA639" stop-opacity="0"/>
<stop offset="0.713542" stop-color="#D0BEA7" stop-opacity="0.792793"/>
<stop offset="1" stop-color="#C4C4C4"/>
</linearGradient>
<linearGradient id="paint1_linear" x1="35" y1="36" x2="35" y2="44" gradientUnits="userSpaceOnUse">
<stop stop-color="#FDA639" stop-opacity="0"/>
<stop offset="1" stop-color="#F28803"/>
</linearGradient>
<clipPath id="clip0">
<rect width="70" height="90" fill="white"/>
</clipPath>
</defs>
</svg>
