<svg width="260" height="90" viewBox="0 0 260 90" fill="none" xmlns="http://www.w3.org/2000/svg">
<g clip-path="url(#clip0)">
<path fill-rule="evenodd" clip-rule="evenodd" d="M63.0005 90.3043H132.161C131.559 70.5857 116.307 54.7969 97.5809 54.7969C78.8548 54.7969 63.6033 70.5857 63.0005 90.3043Z" fill="#393939"/>
<path fill-rule="evenodd" clip-rule="evenodd" d="M100.064 90.9841H95.5157L86.5368 58.8847C86.2901 58.0028 86.9531 57.1289 87.8689 57.1289L107.711 57.1289C108.626 57.1289 109.289 58.0028 109.043 58.8847L100.064 90.9841Z" fill="white"/>
<ellipse rx="3.35857" ry="5.11289" transform="matrix(0.992705 -0.120572 0.128603 0.991696 78.3788 35.6015)" fill="#FDA639"/>
<ellipse rx="3.35857" ry="5.11289" transform="matrix(-0.992705 -0.120572 -0.128603 0.991696 117.502 35.6015)" fill="#FDA639"/>
<path fill-rule="evenodd" clip-rule="evenodd" d="M97.7892 40.1138C91.8305 40.1138 87 44.9443 87 50.903V57.2018C87 57.3581 87.053 57.5098 87.1503 57.6322L91.5751 63.1975C91.7063 63.3625 91.9056 63.4587 92.1165 63.4587H103.475C103.678 63.4587 103.871 63.3695 104.003 63.2148L108.414 58.0207C108.52 57.8957 108.578 57.737 108.578 57.573V50.903C108.578 44.9443 103.748 40.1138 97.7892 40.1138Z" fill="#F88C05"/>
<path d="M89.3481 17.7119C102.888 15.6547 111.972 23.1038 114.005 25.3418C120.446 13.0648 109.291 5.73371 101.009 3.95121C94.7683 2.60823 89.8159 5.57174 87.1577 8.83788C85.0312 11.4508 78.3386 13.6387 71.7998 11.9116C72.0076 14.7022 75.8083 19.7692 89.3481 17.7119Z" fill="#E8BC37"/>
<path d="M78.8926 25.9661C78.8926 18.8876 84.8659 13.1494 92.2343 13.1494H103.15C110.519 13.1494 116.492 18.8876 116.492 25.9661V39.0158H116.485C116.219 50.7798 107.907 60.2215 97.6923 60.2215C87.4776 60.2215 79.1656 50.7798 78.8992 39.0158H78.8926V25.9661Z" fill="#FDA639"/>
<path d="M89.9123 23.0501C103.427 17.502 113.707 24.6819 116.086 26.9936C120.964 10.4037 108.591 3.82962 99.9059 3.46865C93.3625 3.19668 88.7226 7.95606 86.4622 12.5795C84.6538 16.2782 78.1342 20.4664 71.2339 19.7865C71.8287 23.1861 76.3972 28.5982 89.9123 23.0501Z" fill="#F2C94C"/>
<path fill-rule="evenodd" clip-rule="evenodd" d="M92.3882 47.7793C92.4979 50.232 94.9795 52.193 98.0248 52.193C101.07 52.193 103.552 50.232 103.661 47.7793H92.3882Z" fill="#F54E4E"/>
<circle cx="90" cy="35" r="2" fill="#717171"/>
<circle cx="106" cy="35" r="2" fill="#717171"/>
<rect x="94.2109" y="35.9932" width="6.96287" height="8.30684" rx="3.48143" fill="url(#paint0_linear)"/>
<rect x="78.8926" y="22.8408" width="3.48143" height="11.768" rx="1.74072" fill="#F2C94C"/>
<rect x="113.708" y="22.8408" width="2.78515" height="11.768" rx="1.39257" fill="#F2C94C"/>
<line x1="1.72902" y1="-1.72902" x2="5.2196" y2="-1.72902" transform="matrix(0.974515 -0.224323 0.238669 0.971101 85.668 30.9878)" stroke="#F2C94C" stroke-width="3.45804" stroke-linecap="round"/>
<line x1="1.72902" y1="-1.72902" x2="5.2196" y2="-1.72902" transform="matrix(-0.974515 -0.224323 -0.238669 0.971101 109.721 30.9878)" stroke="#F2C94C" stroke-width="3.45804" stroke-linecap="round"/>
<path d="M99.1115 73.4496C98.5581 74.1259 97.524 74.1259 96.9706 73.4496L90.5432 65.5951C89.8042 64.692 90.4468 63.3359 91.6137 63.3359L104.468 63.3359C105.635 63.3359 106.278 64.692 105.539 65.5951L99.1115 73.4496Z" fill="#3F6EB6"/>
<mask id="mask0" mask-type="alpha" maskUnits="userSpaceOnUse" x="86" y="57" width="24" height="34">
<path fill-rule="evenodd" clip-rule="evenodd" d="M100.064 90.9841H95.5157L86.5368 58.8847C86.2901 58.0028 86.9531 57.1289 87.8689 57.1289L107.711 57.1289C108.626 57.1289 109.289 58.0028 109.043 58.8847L100.064 90.9841Z" fill="white"/>
</mask>
<g mask="url(#mask0)">
<path d="M97.8259 63.5747L104.997 91.1002H90.6548L97.8259 63.5747Z" fill="#3F6EB6"/>
</g>
</g>
<g clip-path="url(#clip1)">
<rect x="8.88818" y="3.61572" width="51.2709" height="87.0903" rx="25.6355" fill="#542E17"/>
<path fill-rule="evenodd" clip-rule="evenodd" d="M1.16211 91.014H69.0716C68.4795 70.7279 53.504 54.4849 35.1169 54.4849C16.7297 54.4849 1.75428 70.7279 1.16211 91.014Z" fill="#393939"/>
<path fill-rule="evenodd" clip-rule="evenodd" d="M37.2149 91.0142H32.7489L23.93 58.4368C23.6882 57.5438 24.3607 56.665 25.2858 56.665L44.678 56.665C45.6031 56.665 46.2756 57.5438 46.0339 58.4368L37.2149 91.0142Z" fill="white"/>
<ellipse cx="15.9233" cy="37.9665" rx="3.29942" ry="5.1848" transform="rotate(-7.15331 15.9233 37.9665)" fill="#FDA639"/>
<ellipse rx="3.29942" ry="5.1848" transform="matrix(-0.992217 -0.124525 -0.124525 0.992217 54.3379 37.9665)" fill="#FDA639"/>
<path fill-rule="evenodd" clip-rule="evenodd" d="M34.9818 70.1431C40.0835 70.1431 44.2192 66.0073 44.2192 60.9056L44.2192 52.775C44.2192 52.6356 44.1778 52.4994 44.1001 52.3837L40.3332 46.7692C40.2028 46.5748 39.9841 46.4582 39.75 46.4582L30.2002 46.4582C29.9738 46.4582 29.7612 46.5674 29.6293 46.7514L25.8757 51.9889C25.7902 52.1082 25.7443 52.2513 25.7443 52.398L25.7443 60.9056C25.7443 66.0073 29.88 70.1431 34.9818 70.1431Z" fill="#F88C05"/>
<path d="M16.7173 25.026C16.7173 17.8673 22.5206 12.064 29.6793 12.064H40.2846C47.4433 12.064 53.2466 17.8673 53.2466 25.026V38.2237H53.2402C52.9813 50.1211 44.9059 59.6699 34.9819 59.6699C25.0579 59.6699 16.9825 50.1211 16.7237 38.2237H16.7173V25.026Z" fill="#FDA639"/>
<path fill-rule="evenodd" clip-rule="evenodd" d="M29.6792 47.1797C29.7872 49.6679 32.2238 51.6573 35.2138 51.6573C38.2038 51.6573 40.6403 49.6679 40.7484 47.1797H29.6792Z" fill="#F54E4E"/>
<circle cx="27.3227" cy="33.7461" r="2.12106" fill="#717171"/>
<circle cx="42.8769" cy="33.7461" r="2.12106" fill="#717171"/>
<rect x="32.7676" y="35.2212" width="4.21405" height="8.42809" rx="2.10702" fill="url(#paint1_linear)"/>
<rect x="16.7173" y="22.4663" width="2.46129" height="10.5748" rx="1.23065" transform="rotate(6.00364 16.7173 22.4663)" fill="#542E17"/>
<rect width="2.46129" height="10.5748" rx="1.23065" transform="matrix(-0.994515 0.104592 0.104592 0.994515 53.2803 22.7246)" fill="#542E17"/>
<line x1="23.6013" y1="29.2963" x2="28.8838" y2="28.0398" stroke="#542E17" stroke-width="1.40468" stroke-linecap="round"/>
<line x1="0.702341" y1="-0.702341" x2="6.13217" y2="-0.702341" transform="matrix(-0.972859 -0.231398 -0.231398 0.972859 46.6982 30.1421)" stroke="#542E17" stroke-width="1.40468" stroke-linecap="round"/>
<circle cx="15.3645" cy="43.1023" r="1.56027" fill="white"/>
<circle cx="54.6955" cy="43.1023" r="1.56027" fill="white"/>
<path fill-rule="evenodd" clip-rule="evenodd" d="M53.2804 24.3271H16.4692V22.095C16.4692 11.9299 24.7097 3.68945 34.8748 3.68945C45.0399 3.68945 53.2804 11.9299 53.2804 22.095V24.3271Z" fill="#542E17"/>
</g>
<g clip-path="url(#clip2)">
<path fill-rule="evenodd" clip-rule="evenodd" d="M126 90.3043H195.161C194.559 70.5857 179.307 54.7969 160.581 54.7969C141.855 54.7969 126.603 70.5857 126 90.3043Z" fill="#393939"/>
<path fill-rule="evenodd" clip-rule="evenodd" d="M163.064 90.9841H158.516L149.537 58.8847C149.29 58.0028 149.953 57.1289 150.869 57.1289L170.711 57.1289C171.626 57.1289 172.289 58.0028 172.043 58.8847L163.064 90.9841Z" fill="white"/>
<path fill-rule="evenodd" clip-rule="evenodd" d="M160.789 40.1138C154.83 40.1138 150 44.9443 150 50.903V57.2018C150 57.3581 150.053 57.5098 150.15 57.6322L154.575 63.1975C154.706 63.3625 154.906 63.4587 155.116 63.4587H166.475C166.678 63.4587 166.871 63.3695 167.003 63.2148L171.414 58.0207C171.52 57.8957 171.578 57.737 171.578 57.573V50.903C171.578 44.9443 166.748 40.1138 160.789 40.1138Z" fill="#F88C05"/>
<ellipse rx="3.14389" ry="5.10758" transform="matrix(-0.99167 -0.128805 -0.120382 0.992728 157.236 32.6015)" fill="#FDA639"/>
<circle cx="147" cy="32" r="2" fill="#717171"/>
<rect x="154" y="20" width="3" height="12" rx="1.5" fill="#F2C94C"/>
<line x1="1.72902" y1="-1.72902" x2="4.79211" y2="-1.72902" transform="matrix(-0.971012 -0.239029 -0.223983 0.974593 149.96 27.9878)" stroke="#F2C94C" stroke-width="3.45804" stroke-linecap="round"/>
<mask id="mask1" mask-type="alpha" maskUnits="userSpaceOnUse" x="149" y="57" width="24" height="34">
<path fill-rule="evenodd" clip-rule="evenodd" d="M163.064 90.9841H158.516L149.537 58.8847C149.29 58.0028 149.953 57.1289 150.869 57.1289L170.711 57.1289C171.626 57.1289 172.289 58.0028 172.043 58.8847L163.064 90.9841Z" fill="white"/>
</mask>
<g mask="url(#mask1)">
<path d="M160.826 63.5747L167.997 91.1002H153.655L160.826 63.5747Z" fill="#D33E3E"/>
</g>
<path d="M143 31.6292L146.15 35H175.85L179 31.6292V23.0001C179 13.0589 170.941 5.00002 161 5.00005C151.059 5.00009 143 13.0589 143 23V31.6292Z" fill="#C4C4C4"/>
<path d="M143.251 40.7635C143.828 46.6341 144.856 49.6814 149.95 53.9865C149.95 53.9865 153.381 57.9253 156.289 58.9933C159.427 60.1457 161.63 60.1016 164.782 58.9933C167.775 57.9408 171.361 53.9865 171.361 53.9865C176.47 47.868 178.117 44.8939 177.94 40.7635C181.361 38.1969 182.82 35.8899 181.543 31.9834C181.012 30.36 178.905 30.1612 177.802 31.4645L175.906 33.7027L175.404 17.6871C175.231 12.1888 170.03 8.25131 164.692 9.57725V9.57725C162.001 10.2456 159.173 10.2526 156.477 9.60445V9.60445C150.975 8.28161 145.643 12.4426 145.643 18.1021V33.7027L143.305 31.3911C142.18 30.2794 140.271 30.4996 139.665 31.9603C138.125 35.6731 139.234 37.8784 143.251 40.7635Z" fill="#FDA639"/>
<path fill-rule="evenodd" clip-rule="evenodd" d="M155.677 44.2583C155.78 46.7133 158.102 48.6762 160.953 48.6762C163.803 48.6762 166.126 46.7133 166.229 44.2583H155.677Z" fill="#F54E4E"/>
<circle cx="154" cy="32" r="2" fill="#717171"/>
<circle cx="168" cy="32" r="2" fill="#717171"/>
<rect x="158" y="32" width="6" height="9" rx="3" fill="url(#paint2_linear)"/>
<path d="M162.112 73.4496C161.558 74.1259 160.524 74.1259 159.971 73.4496L153.543 65.5951C152.804 64.692 153.447 63.3359 154.614 63.3359L167.468 63.3359C168.635 63.3359 169.278 64.692 168.539 65.5951L162.112 73.4496Z" fill="#D33E3E"/>
<line x1="1.72902" y1="-1.72902" x2="5.2196" y2="-1.72902" transform="matrix(0.974515 -0.224323 0.238669 0.971101 149 29.5586)" stroke="#C4C4C4" stroke-width="3.45804" stroke-linecap="round"/>
<line x1="1.72902" y1="-1.72902" x2="5.2196" y2="-1.72902" transform="matrix(-0.974515 -0.224323 -0.238669 0.971101 172.771 29.5586)" stroke="#C4C4C4" stroke-width="3.45804" stroke-linecap="round"/>
</g>
<g clip-path="url(#clip3)">
<path fill-rule="evenodd" clip-rule="evenodd" d="M190 90.3043H259.161C258.559 70.5857 243.307 54.7969 224.581 54.7969C205.855 54.7969 190.603 70.5857 190 90.3043Z" fill="#393939"/>
<path fill-rule="evenodd" clip-rule="evenodd" d="M227.064 90.9841H222.516L213.537 58.8847C213.29 58.0028 213.953 57.1289 214.869 57.1289L234.711 57.1289C235.626 57.1289 236.289 58.0028 236.043 58.8847L227.064 90.9841Z" fill="white"/>
<path fill-rule="evenodd" clip-rule="evenodd" d="M224.789 40.1138C218.83 40.1138 214 44.9443 214 50.903V57.2018C214 57.3581 214.053 57.5098 214.15 57.6322L218.575 63.1975C218.706 63.3625 218.906 63.4587 219.116 63.4587H230.475C230.678 63.4587 230.871 63.3695 231.003 63.2148L235.414 58.0207C235.52 57.8957 235.578 57.737 235.578 57.573V50.903C235.578 44.9443 230.748 40.1138 224.789 40.1138Z" fill="#F88C05"/>
<path d="M206 23.6139C206 16.0951 211.878 10 219.129 10H229.871C237.122 10 243 16.0951 243 23.6139V37.4752H242.994C242.731 49.971 234.552 60 224.5 60C214.448 60 206.269 49.971 206.006 37.4752H206V23.6139Z" fill="#FDA639"/>
<path d="M206 23.6139C206 16.0951 211.878 10 219.129 10H229.871C237.122 10 243 16.0951 243 23.6139V37.4752H242.994C242.731 49.971 234.552 60 224.5 60C214.448 60 206.269 49.971 206.006 37.4752H206V23.6139Z" fill="url(#paint3_linear)"/>
<path fill-rule="evenodd" clip-rule="evenodd" d="M219.388 47.7793C219.498 50.232 221.979 52.193 225.025 52.193C228.07 52.193 230.552 50.232 230.661 47.7793H219.388Z" fill="#F54E4E"/>
<ellipse cx="217.034" cy="34.6084" rx="2.08886" ry="2.07671" fill="#717171"/>
<ellipse cx="233.048" cy="34.6084" rx="2.08886" ry="2.07671" fill="#717171"/>
<rect x="221" y="36" width="8" height="8" rx="4" fill="url(#paint4_linear)"/>
<line x1="1" y1="-1" x2="5.94862" y2="-1" transform="matrix(0.974515 -0.224323 0.238669 0.971101 212.668 30.9878)" stroke="#C4C4C4" stroke-width="2" stroke-linecap="round"/>
<line x1="1" y1="-1" x2="5.94862" y2="-1" transform="matrix(-0.974515 -0.224323 -0.238669 0.971101 236.721 30.9878)" stroke="#C4C4C4" stroke-width="2" stroke-linecap="round"/>
<path d="M226.112 73.4496C225.558 74.1259 224.524 74.1259 223.971 73.4496L217.543 65.5951C216.804 64.692 217.447 63.3359 218.614 63.3359L231.468 63.3359C232.635 63.3359 233.278 64.692 232.539 65.5951L226.112 73.4496Z" fill="#439350"/>
<mask id="mask2" mask-type="alpha" maskUnits="userSpaceOnUse" x="213" y="57" width="24" height="34">
<path fill-rule="evenodd" clip-rule="evenodd" d="M227.064 90.9841H222.516L213.537 58.8847C213.29 58.0028 213.953 57.1289 214.869 57.1289L234.711 57.1289C235.626 57.1289 236.289 58.0028 236.043 58.8847L227.064 90.9841Z" fill="white"/>
</mask>
<g mask="url(#mask2)">
<path d="M224.826 63.5747L231.997 91.1002H217.655L224.826 63.5747Z" fill="#439350"/>
</g>
<path fill-rule="evenodd" clip-rule="evenodd" d="M240.979 32H243.765C243.92 30.8156 244 29.6017 244 28.3654C244 15.461 235.27 5 224.5 5C213.73 5 205 15.461 205 28.3654C205 29.6017 205.08 30.8156 205.235 32H208.021C208.457 18.6969 215.668 8.11538 224.5 8.11538C233.332 8.11538 240.543 18.6969 240.979 32Z" fill="#C4C4C4"/>
<path d="M219.578 12.5766C230.11 9.9519 234.286 14.0524 236.141 15.146C239.942 7.29779 230.3 4.18774 223.532 4.01698C218.432 3.88832 213.77 4.43995 210.383 7.43746C207.228 10.2293 203.608 16.0023 205.543 19C209.899 16.8588 209.046 15.2012 219.578 12.5766Z" fill="#D0D0D0"/>
<rect x="211.5" y="31.5" width="11" height="7" rx="3.5" stroke="#4F4F4F"/>
<rect x="227.5" y="31.5" width="11" height="7" rx="3.5" stroke="#4F4F4F"/>
<path fill-rule="evenodd" clip-rule="evenodd" d="M228 35C228 33.8954 227.105 33 226 33H224C222.895 33 222 33.8954 222 35H223C223 34.4477 223.448 34 224 34H226C226.552 34 227 34.4477 227 35H228Z" fill="#4F4F4F"/>
<path fill-rule="evenodd" clip-rule="evenodd" d="M211.972 35.0725C212.214 34.3935 211.86 33.6468 211.181 33.4047L205.668 31.4385C204.989 31.1964 204.242 31.5504 204 32.2293L204.942 32.5652C204.999 32.4065 205.173 32.3238 205.332 32.3804L210.845 34.3466C211.004 34.4032 211.086 34.5778 211.03 34.7366L211.972 35.0725Z" fill="#4F4F4F"/>
<path fill-rule="evenodd" clip-rule="evenodd" d="M238.037 34.8592C237.794 34.1802 238.149 33.4335 238.828 33.1913L243.742 31.4385C244.421 31.1964 245.168 31.5504 245.41 32.2294L244.468 32.5653C244.412 32.4065 244.237 32.3238 244.078 32.3804L239.164 34.1332C239.005 34.1898 238.922 34.3644 238.978 34.5233L238.037 34.8592Z" fill="#4F4F4F"/>
<ellipse rx="3.35857" ry="5.11289" transform="matrix(0.992705 -0.120572 0.128603 0.991696 204.992 36.4755)" fill="#FDA639"/>
<ellipse rx="3.35857" ry="5.11289" transform="matrix(-0.992705 -0.120572 -0.128603 0.991696 244.502 35.6015)" fill="#FDA639"/>
</g>
<defs>
<linearGradient id="paint0_linear" x1="97.6924" y1="35.9932" x2="97.6924" y2="44.3" gradientUnits="userSpaceOnUse">
<stop stop-color="#FDA639" stop-opacity="0"/>
<stop offset="1" stop-color="#F28803"/>
</linearGradient>
<linearGradient id="paint1_linear" x1="34.8746" y1="35.2212" x2="34.8746" y2="43.6493" gradientUnits="userSpaceOnUse">
<stop stop-color="#FDA639" stop-opacity="0"/>
<stop offset="1" stop-color="#F28803"/>
</linearGradient>
<linearGradient id="paint2_linear" x1="161" y1="32" x2="161" y2="41" gradientUnits="userSpaceOnUse">
<stop stop-color="#FDA639" stop-opacity="0"/>
<stop offset="1" stop-color="#F28803"/>
</linearGradient>
<linearGradient id="paint3_linear" x1="224.5" y1="10" x2="224.5" y2="60" gradientUnits="userSpaceOnUse">
<stop offset="0.515625" stop-color="#FDA639" stop-opacity="0"/>
<stop offset="0.713542" stop-color="#D0BEA7" stop-opacity="0.792793"/>
<stop offset="1" stop-color="#C4C4C4"/>
</linearGradient>
<linearGradient id="paint4_linear" x1="225" y1="36" x2="225" y2="44" gradientUnits="userSpaceOnUse">
<stop stop-color="#FDA639" stop-opacity="0"/>
<stop offset="1" stop-color="#F28803"/>
</linearGradient>
<clipPath id="clip0">
<rect width="70" height="90" fill="white" transform="translate(63)"/>
</clipPath>
<clipPath id="clip1">
<rect width="70" height="90" fill="white"/>
</clipPath>
<clipPath id="clip2">
<rect width="70" height="90" fill="white" transform="translate(126)"/>
</clipPath>
<clipPath id="clip3">
<rect width="70" height="90" fill="white" transform="translate(190)"/>
</clipPath>
</defs>
</svg>
